<?xml version="1.0" encoding="UTF-8" standalone="no"?>
<!DOCTYPE svg PUBLIC "-//W3C//DTD SVG 1.1//EN" "http://www.w3.org/Graphics/SVG/1.1/DTD/svg11.dtd">
<svg version="1.1" xmlns="http://www.w3.org/2000/svg" xmlns:xlink="http://www.w3.org/1999/xlink" preserveAspectRatio="xMidYMid meet" viewBox="0 0 640 640" width="640" height="640"><defs><path d="M0 320C0 496.73 143.27 640 320 640C496.73 640 640 496.73 640 320C639.81 143.35 496.65 0.19 320 0C143.27 0 0 143.27 0 320ZM30 320C30 159.84 159.84 30 320 30C480.16 30 610 159.84 610 320C609.81 480.08 480.08 609.81 320 610C159.84 610 30 480.16 30 320Z" id="bbjY3ID2G"></path><path d="M349.4 179.4C336.4 192.4 232.4 296.4 219.4 309.4C213.55 315.26 213.55 324.74 219.4 330.6C232.4 343.6 336.4 447.6 349.4 460.6C355.46 466.25 364.95 465.91 370.6 459.85C375.97 454.09 375.97 445.16 370.6 439.4C362.64 431.44 322.84 391.64 251.2 320C322.84 248.36 362.64 208.56 370.6 200.6C376.45 194.74 376.45 185.26 370.6 179.4C364.74 173.55 355.26 173.55 349.4 179.4Z" id="b1cxsryFQ6"></path></defs><g><g><g><use xlink:href="#bbjY3ID2G" opacity="1" fill="#ffffff" fill-opacity="1"></use><g><use xlink:href="#bbjY3ID2G" opacity="1" fill-opacity="0" stroke="#000000" stroke-width="1" stroke-opacity="0"></use></g></g><g><use xlink:href="#b1cxsryFQ6" opacity="1" fill="#ffffff" fill-opacity="1"></use><g><use xlink:href="#b1cxsryFQ6" opacity="1" fill-opacity="0" stroke="#000000" stroke-width="1" stroke-opacity="0"></use></g></g></g></g></svg>